<svg width="22" height="22" fill="none" xmlns="http://www.w3.org/2000/svg"><path d="M13.388 4.823a4.776 4.776 0 013.782 3.775l-3.782-3.775zm0-3.823a8.624 8.624 0 015.138 2.463A8.594 8.594 0 0121 8.588L13.388 1zm6.655 15.214v2.867a1.907 1.907 0 01-1.302 1.818c-.253.085-.52.117-.786.093a18.972 18.972 0 01-8.263-2.934 18.654 18.654 0 01-5.745-5.733 18.89 18.89 0 01-2.94-8.286 1.908 1.908 0 011.134-1.92 1.9 1.9 0 01.772-.163h2.873A1.917 1.917 0 017.7 3.599c.12.918.346 1.819.67 2.686A1.908 1.908 0 017.94 8.3L6.724 9.515a15.305 15.305 0 005.745 5.734l1.216-1.214a1.916 1.916 0 012.02-.43 12.29 12.29 0 002.69.669 1.916 1.916 0 011.648 1.94z" stroke="#fff" stroke-linecap="round" stroke-linejoin="round"/></svg>