<svg width="22" height="22" fill="none" xmlns="http://www.w3.org/2000/svg"><path fill-rule="evenodd" clip-rule="evenodd" d="M13.09 2H4.91A5.223 5.223 0 000 6.91v8.18A5.223 5.223 0 004.91 20h8.18A5.223 5.223 0 0018 15.09V6.91A5.223 5.223 0 0013.09 2zm3.274 13.09a3.436 3.436 0 01-3.273 3.274H4.909a3.436 3.436 0 01-3.273-3.273V6.909A3.436 3.436 0 014.91 3.636h8.182a3.436 3.436 0 013.273 3.273v8.182zM9 6.09a4.909 4.909 0 100 9.819 4.909 4.909 0 000-9.818zm.066 8.175a3.268 3.268 0 110-6.535 3.269 3.269 0 010 6.537v-.002zm4.444-9a1.227 1.227 0 10.871.36 1.24 1.24 0 00-.872-.352v-.008z" fill="#fff"/></svg>