<svg width="124" height="22" fill="none" xmlns="http://www.w3.org/2000/svg"><path d="M.82 2.576v-.84h5.152l8.064 17.136L13.112 21h-3.64L.82 2.576zm15.82 10.332h-.112l-1.876 4.536-2.408-5.152L16.64 1.736h5.32V21h-5.32v-8.092zM.82 5.348l5.152 10.976V21H.82V5.348zm56.246-3.612h5.6V21h-5.6V1.736zm6.776 8.988h.672c.597 0 1.036-.019 1.316-.056.299-.056.532-.168.7-.336.168-.15.27-.364.308-.644.056-.299.084-.737.084-1.316 0-.579-.028-1.008-.084-1.288-.037-.299-.14-.532-.308-.7-.168-.15-.401-.243-.7-.28-.299-.056-.737-.084-1.316-.084h-.672V1.736h2.324c1.381 0 2.501.14 3.36.42.877.261 1.54.672 1.988 1.232.43.523.719 1.185.868 1.988.15.784.224 1.783.224 2.996 0 1.157-.075 2.119-.224 2.884-.13.765-.401 1.41-.812 1.932-.467.597-1.139 1.055-2.016 1.372-.859.299-1.988.448-3.388.448h-2.324v-4.284z" fill="#6CAC3D"/><path d="M32.677 12.152c0-.485-.018-.83-.056-1.036a.595.595 0 00-.336-.448c-.168-.093-.485-.159-.952-.196-.28-.019-.886-.028-1.82-.028-.896 0-1.726.037-2.492.112l-1.484.084V7c1.755-.336 3.65-.504 5.684-.504 1.568 0 2.791.112 3.668.336.896.224 1.568.579 2.016 1.064.392.448.644 1.017.756 1.708.131.69.196 1.652.196 2.884V21h-5.18v-8.848zm-4.144 9.044c-1.288 0-2.24-.355-2.856-1.064-.616-.728-.924-1.82-.924-3.276 0-.896.066-1.615.196-2.156.131-.56.355-.999.672-1.316.318-.336.756-.57 1.316-.7.56-.15 1.298-.224 2.212-.224l2.352.056v2.492h-.28c-.429 0-.709.01-.84.028-.373.019-.569.196-.588.532a5.402 5.402 0 00-.028.7c0 .28.01.495.028.644a.96.96 0 00.168.364.56.56 0 00.42.224c.262.037.542.056.84.056h.28v2.856a3.14 3.14 0 01-1.316.616c-.448.112-.998.168-1.652.168zM39.751 6.72h5.656L55.039 21h-5.656L39.75 6.72zm8.596 2.24l1.176-2.24h5.32l-3.836 6.188-2.66-3.948zm-4.76 5.572l2.66 3.948L44.903 21h-5.32l4.004-6.468zm37.658-7c.392-.373.85-.635 1.372-.784.541-.168 1.204-.252 1.988-.252v4.676c-.84 0-1.53.056-2.072.168-.523.112-.952.308-1.288.588V7.532zm-6.356-.812h5.18V21h-5.18V6.72zm19.738 7.168c0-.952-.01-1.587-.028-1.904-.019-.448-.075-.784-.168-1.008-.094-.243-.243-.392-.448-.448-.224-.056-.532-.084-.924-.084h-.392V6.496h.392c1.624 0 2.893.13 3.808.392.914.243 1.596.653 2.044 1.232.41.523.672 1.223.784 2.1.13.859.196 2.081.196 3.668 0 1.475-.047 2.623-.14 3.444-.075.803-.27 1.465-.588 1.988-.355.579-.887 1.017-1.596 1.316-.71.28-1.69.457-2.94.532v-7.28zm-1.568 7.336c-1.624 0-2.894-.121-3.808-.364-.915-.243-1.596-.653-2.044-1.232-.41-.523-.682-1.213-.812-2.072-.112-.859-.168-2.081-.168-3.668 0-1.456.046-2.595.14-3.416.093-.821.298-1.503.616-2.044.336-.597.858-1.036 1.568-1.316.71-.299 1.69-.485 2.94-.56v7.336c0 .952.01 1.577.028 1.876.018.448.074.784.168 1.008a.672.672 0 00.476.42c.186.056.485.084.896.084h.392v3.948h-.392zM120.17 4.508c-.056.224-.084.541-.084.952v1.26h3.416v3.948h-21.924V6.72h2.632v-.308c0-1.587.112-2.79.336-3.612.224-.821.635-1.419 1.232-1.792.56-.355 1.335-.579 2.324-.672.99-.093 2.558-.14 4.704-.14V3.78c-.97 0-1.605.01-1.904.028-.448.019-.793.084-1.036.196-.224.112-.354.28-.392.504-.056.224-.084.541-.084.952v1.26h5.516v-.308c0-1.587.112-2.79.336-3.612.224-.821.635-1.419 1.232-1.792.56-.355 1.335-.579 2.324-.672.99-.093 2.558-.14 4.704-.14V3.78c-.97 0-1.605.01-1.904.028-.448.019-.793.084-1.036.196-.224.112-.354.28-.392.504zm-15.96 7.28h5.18V21h-5.18v-9.212zm10.696 0h5.18V21h-5.18v-9.212z" fill="#fff"/></svg>