<svg width="26" height="27" fill="none" xmlns="http://www.w3.org/2000/svg"><path d="M13.302 26.178c7.002 0 12.699-5.696 12.699-12.698C26 6.478 20.304.78 13.302.78S.604 6.478.604 13.48 6.3 26.178 13.302 26.178zm0-23.81c6.127 0 11.111 4.985 11.111 11.112S19.43 24.59 13.302 24.59c-6.127 0-11.111-4.984-11.111-11.111 0-6.127 4.984-11.111 11.111-11.111z" fill="#2B6BA0"/><path d="M8.96 15.761l1.659-.72-.466.466a.794.794 0 00-.233.56v3.107c0 .71.86 1.056 1.355.56l1.665-1.665 3.63 1.815a.794.794 0 001.135-.569l2.071-11.387a.795.795 0 00-1.07-.881L5.248 12.313a.795.795 0 00-.137 1.409l3.104 1.98a.792.792 0 00.743.059zm9-6.716l-1.626 8.947-3.196-1.597a.792.792 0 00-.915.15l-.716.714v-.86l3.183-3.182c.616-.617-.078-1.635-.878-1.289L8.715 14.14l-1.433-.915 10.678-4.18z" fill="#2B6BA0"/></svg>