<svg width="18" height="18" fill="none" xmlns="http://www.w3.org/2000/svg"><path d="M10.91 4.058a3.832 3.832 0 013.026 3.02l-3.026-3.02zm0-3.058a6.9 6.9 0 014.11 1.97A6.875 6.875 0 0117 7.07L10.91 1zm5.324 12.171v2.294a1.525 1.525 0 01-1.041 1.454 1.534 1.534 0 01-.629.075 15.177 15.177 0 01-6.61-2.347 14.923 14.923 0 01-4.596-4.587 15.111 15.111 0 01-2.352-6.63 1.526 1.526 0 01.907-1.536 1.53 1.53 0 01.618-.13h2.297A1.534 1.534 0 016.36 3.08a9.8 9.8 0 00.537 2.148 1.526 1.526 0 01-.345 1.613l-.973.97a12.244 12.244 0 004.596 4.588l.973-.97a1.532 1.532 0 011.616-.345 9.847 9.847 0 002.152.535 1.533 1.533 0 011.318 1.552z" stroke="#000" stroke-linecap="round" stroke-linejoin="round"/></svg>