<svg width="25" height="28" fill="none" xmlns="http://www.w3.org/2000/svg"><path d="M12.167.74a20.65 20.65 0 00-2.383.15c-1.53.188-3.045.5-4.5 1.169C2.971 3.122 1.331 4.925.854 7.546a34.516 34.516 0 00-.457 3.356C.218 13.092.33 15.29.95 17.449c.49 1.702 1.391 3.231 2.97 4.223.669.42 1.55.623 2.01.837.129.06.16.097.167.106.007.007.025.023.023.159-.016 1.386 0 4.069 0 4.069l.002.577h1.036l.167-.163s2.63-2.53 3.582-3.573c.173-.186.26-.29.279-.301.016-.011-.011-.018.165-.023 1.249-.025 2.495-.072 3.741-.14 1.643-.09 3.317-.247 4.928-.92 1.402-.587 2.573-1.545 3.283-2.982.725-1.472 1.112-3.033 1.257-4.649.24-2.689.156-5.383-.587-8.038-.437-1.557-1.316-2.873-2.664-3.802-1.613-1.11-3.433-1.527-5.213-1.792A26.964 26.964 0 0012.958.75a22.94 22.94 0 00-.79-.009zm.759 1.17c1 .027 1.998.124 3 .274 1.717.256 3.337.645 4.726 1.601 1.126.775 1.828 1.822 2.204 3.156.694 2.483.782 5.028.549 7.626-.134 1.498-.49 2.91-1.145 4.24-.577 1.173-1.479 1.918-2.689 2.424-1.405.586-2.932.743-4.54.831a106.02 106.02 0 01-3.702.138c-.31.007-.614.089-.83.247-.215.159-.312.306-.446.451-.68.743-2.034 2.05-2.773 2.767-.004-.866-.011-1.913 0-2.878.005-.297-.063-.6-.233-.84s-.404-.386-.628-.49c-.655-.303-1.511-.535-1.883-.768-1.298-.816-2.034-2.039-2.471-3.561-.574-1.992-.682-4.042-.512-6.129a33.43 33.43 0 01.444-3.244c.412-2.268 1.708-3.696 3.77-4.643 1.302-.598 2.693-.892 4.16-1.071a19.792 19.792 0 012.999-.132zm.245 2.89c-.478 0-.943.055-1.394.154a.581.581 0 00.258 1.133 5.066 5.066 0 011.136-.127 5.107 5.107 0 015.116 5.114c0 .392-.043.772-.127 1.14a.58.58 0 101.13.253 6.26 6.26 0 00.157-1.393c0-3.457-2.817-6.274-6.276-6.274zM7.384 5.963a1.103 1.103 0 00-.294.025c-1.054.233-2.1.996-2.13 2.36.03.19.027.395.098.567.344.843.643 1.713 1.073 2.51 2.096 3.874 5.266 6.568 9.305 8.279.483.203.981.247 1.468.043.671-.279 1.24-.71 1.618-1.328.519-.85.526-1.439-.328-2.066-.56-.413-1.11-.836-1.677-1.24-.863-.611-1.797-.718-2.44.356-.034.055-.084.1-.127.145-.33.351-.736.437-1.167.26-1.633-.672-2.895-1.757-3.656-3.373-.449-.95-.327-1.425.512-2.057.083-.061.163-.127.24-.197.367-.335.464-.734.247-1.185A9.274 9.274 0 008.15 6.325c-.224-.213-.48-.347-.766-.362zm5.778.577c-.256 0-.51.02-.76.064a.581.581 0 00-.369.951.583.583 0 00.565.19c.18-.029.371-.045.564-.045a3.388 3.388 0 013.398 3.4c0 .192-.016.383-.045.564a.584.584 0 00.19.564.582.582 0 00.952-.37 4.568 4.568 0 00-4.495-5.317zm-.082 1.74a.584.584 0 00-.51.288.586.586 0 000 .585c.107.18.302.29.51.287.967 0 1.74.773 1.74 1.74a.583.583 0 00.288.51.586.586 0 00.584 0 .583.583 0 00.288-.51c0-1.595-1.305-2.9-2.9-2.9z" fill="#5C4CBB"/></svg>