<svg width="18" height="18" fill="none" xmlns="http://www.w3.org/2000/svg"><path d="M9 18c4.963 0 9-4.037 9-9s-4.037-9-9-9-9 4.037-9 9 4.037 9 9 9zM9 1.125c4.342 0 7.875 3.532 7.875 7.875 0 4.342-3.533 7.875-7.875 7.875-4.343 0-7.875-3.533-7.875-7.875 0-4.343 3.532-7.875 7.875-7.875z" fill="#fff"/><path d="M5.922 10.616l1.176-.511-.33.33a.563.563 0 00-.165.398v2.201c0 .505.609.749.96.398l1.18-1.18 2.573 1.286a.563.563 0 00.805-.403l1.467-8.07a.563.563 0 00-.758-.625L3.291 8.172a.563.563 0 00-.097.999l2.2 1.404a.56.56 0 00.527.04zm6.38-4.76l-1.153 6.34-2.265-1.131a.561.561 0 00-.649.106l-.507.507v-.61l2.255-2.255c.438-.437-.055-1.159-.622-.914L5.75 9.467l-1.016-.648 7.569-2.963z" fill="#fff"/></svg>