<svg width="23" height="14" fill="none" xmlns="http://www.w3.org/2000/svg"><path d="M18.736 7.47c-.365-.456-.26-.66 0-1.067.005-.004 3.019-4.122 3.33-5.52h.001c.154-.509 0-.883-.746-.883h-2.469c-.628 0-.918.321-1.073.68 0 0-1.257 2.976-3.035 4.905-.574.557-.84.736-1.153.736-.154 0-.394-.18-.394-.688V.883c0-.61-.176-.883-.696-.883H8.619c-.394 0-.629.285-.629.55 0 .579.89.712.982 2.34v3.533c0 .774-.142.916-.458.916-.839 0-2.876-2.987-4.083-6.407C4.188.27 3.95.001 3.316.001H.846C.143 0 0 .32 0 .68c0 .635.84 3.79 3.903 7.958 2.041 2.846 4.916 4.387 7.532 4.387 1.572 0 1.764-.342 1.764-.931 0-2.719-.142-2.976.645-2.976.365 0 .994.179 2.461 1.551 1.678 1.628 1.954 2.356 2.893 2.356h2.468c.704 0 1.06-.342.855-1.018-.47-1.42-3.642-4.343-3.785-4.538z" fill="#fff"/></svg>