<svg width="16" height="16" fill="none" xmlns="http://www.w3.org/2000/svg"><path d="M15.237 9.372h-.24V7.215c0-.341-.17-.644-.429-.827v-.294a.773.773 0 00-.772-.773h-.18l.685-1.003a.74.74 0 00-.194-1.026L9.465.128a.733.733 0 00-.553-.115.734.734 0 00-.473.31L4.433 6.202H3.318l.269-2.723a.08.08 0 01.05-.068c.347-.13.647-.375.846-.687a.08.08 0 01.076-.035l1.748.172a.228.228 0 00.045-.453l-1.748-.173a.534.534 0 00-.506.244c-.146.23-.366.41-.621.505a.533.533 0 00-.344.45L2.86 6.202h-.291l.425-4.307a.283.283 0 01.31-.253l3.533.349a.228.228 0 00.045-.454l-3.534-.349a.74.74 0 00-.807.662l-.343 3.471h-.584a.773.773 0 00-.773.773v.2c-.348.16-.59.513-.59.921v7.772A1.013 1.013 0 001.262 16h12.721c.56 0 1.014-.455 1.014-1.013V12.83h.24c.282 0 .512-.23.512-.512V9.884a.513.513 0 00-.513-.512zm-1.441-3.595c.174 0 .316.142.316.317v.116a1.017 1.017 0 00-.128-.008h-.967l.29-.425h.489zM8.816.58a.28.28 0 01.392-.075l4.642 3.163a.283.283 0 01.074.393L12.465 6.2h-.35l.715-1.049a.533.533 0 00.025-.565 1.274 1.274 0 01-.152-.787.533.533 0 00-.231-.512l-2.406-1.64a.533.533 0 00-.561-.027 1.274 1.274 0 01-.788.146.54.54 0 00-.517.23L5.335 6.202h-.35L8.814.58zm.1 3.871a1.88 1.88 0 00-1.874 1.75H5.886l2.69-3.948a.081.081 0 01.078-.035c.367.052.747-.019 1.071-.198a.08.08 0 01.084.006l2.406 1.64a.08.08 0 01.035.075c-.048.367.026.747.208 1.07a.08.08 0 01-.004.084l-.89 1.307h-.774a1.881 1.881 0 00-1.874-1.75zm1.417 1.75H7.5a1.425 1.425 0 011.417-1.294c.742 0 1.352.57 1.417 1.295zm-9.036-.107c0-.175.142-.317.317-.317h.539l-.042.425h-.814v-.108zm-.59 1.121c0-.307.25-.557.556-.557h12.721c.308 0 .558.25.558.557v.633H.706v-.633zm13.835 7.772c0 .307-.25.557-.558.557H1.264a.558.558 0 01-.558-.557v-.633h1.23a.228.228 0 000-.456H.706V8.304h13.836v1.068h-2.168c-.683 0-1.275.398-1.556.974l-.002.006-.007.015a1.723 1.723 0 00-.164.734 1.73 1.73 0 001.729 1.729h2.168v1.068H3.395a.228.228 0 000 .456h11.147v.633zm.752-2.67a.057.057 0 01-.057.057h-2.863a1.274 1.274 0 010-2.546h2.863c.031 0 .057.025.057.056v2.434z" fill="#fff"/></svg>